<svg xmlns="http://www.w3.org/2000/svg" xmlns:xlink="http://www.w3.org/1999/xlink" width="500" zoomAndPan="magnify" viewBox="0 0 375 374.999991" height="500" preserveAspectRatio="xMidYMid meet" version="1.0"><defs><clipPath id="dfb98f5f8b"><path d="M 95.453125 24.0625 L 24.0625 95.453125 C 40.910156 65.574219 65.574219 40.910156 95.453125 24.0625 Z M 131.351562 8.621094 L 8.621094 131.351562 C 6.015625 139.972656 3.808594 148.796875 2.40625 157.820312 L 158.019531 2.40625 C 148.796875 3.808594 139.972656 5.816406 131.351562 8.621094 Z M 187.5 0 C 185.09375 0 182.886719 0 180.480469 0.199219 L 0.199219 180.480469 C 0 182.886719 0 185.09375 0 187.5 C 0 191.910156 0.199219 196.324219 0.402344 200.535156 L 200.535156 0.402344 C 196.121094 0.199219 191.910156 0 187.5 0 Z M 218.785156 2.605469 L 2.605469 218.785156 C 3.609375 224.398438 4.8125 230.011719 6.214844 235.429688 L 235.429688 6.214844 C 230.011719 4.8125 224.398438 3.609375 218.785156 2.605469 Z M 250.867188 11.03125 L 11.03125 250.867188 C 12.835938 255.882812 14.839844 260.695312 16.84375 265.308594 L 265.308594 16.84375 C 260.695312 14.839844 255.882812 12.835938 250.867188 11.03125 Z M 278.945312 23.863281 L 23.863281 278.945312 C 26.269531 283.355469 28.878906 287.566406 31.683594 291.578125 L 291.578125 31.484375 C 287.367188 28.675781 283.15625 26.269531 278.945312 23.863281 Z M 303.207031 40.105469 L 40.105469 303.207031 C 43.113281 307.019531 46.121094 310.628906 49.53125 314.238281 L 314.238281 49.332031 C 310.828125 46.121094 307.019531 43.113281 303.207031 40.105469 Z M 324.464844 59.558594 L 59.558594 324.464844 C 63.167969 327.671875 66.777344 330.882812 70.386719 333.890625 L 333.890625 70.386719 C 330.882812 66.777344 327.875 62.96875 324.464844 59.558594 Z M 342.511719 82.21875 L 82.21875 342.511719 C 86.230469 345.320312 90.441406 347.929688 94.652344 350.335938 L 350.335938 94.652344 C 347.929688 90.441406 345.320312 86.230469 342.511719 82.21875 Z M 357.351562 108.089844 L 108.089844 357.351562 C 112.699219 359.558594 117.511719 361.5625 122.328125 363.367188 L 363.367188 122.328125 C 361.5625 117.511719 359.558594 112.699219 357.351562 108.089844 Z M 368.183594 137.765625 L 137.765625 368.183594 C 143.183594 369.585938 148.796875 370.988281 154.410156 371.992188 L 371.992188 154.410156 C 370.988281 148.796875 369.785156 143.183594 368.183594 137.765625 Z M 374.398438 172.460938 L 172.460938 374.398438 C 177.472656 374.800781 182.488281 375 187.5 375 C 189.105469 375 190.707031 375 192.3125 375 L 375 192.3125 C 375 190.707031 375 189.105469 375 187.5 C 375 182.488281 374.800781 177.472656 374.398438 172.460938 Z M 240.441406 367.378906 L 367.179688 240.640625 C 369.585938 232.21875 371.589844 223.597656 372.792969 214.570312 L 214.371094 372.996094 C 223.394531 371.792969 232.019531 369.785156 240.441406 367.378906 Z M 353.34375 274.734375 L 274.734375 353.34375 C 308.222656 335.695312 335.695312 308.222656 353.34375 274.734375 Z M 353.34375 274.734375 " clip-rule="nonzero"/></clipPath></defs><g clip-path="url(#dfb98f5f8b)"><rect x="-37.5" width="450" fill="#ffffff" y="-37.499999" height="449.999989" fill-opacity="1"/></g></svg>